<mxfile host="app.diagrams.net" modified="2022-09-29T07:51:13.745Z" agent="5.0 (Windows NT 10.0; Win64; x64) AppleWebKit/537.36 (KHTML, like Gecko) Chrome/105.0.0.0 Safari/537.36" etag="uKzy9uFqvW13cHe1uBY1" version="20.3.7" type="github">
  <diagram id="P0zaWtpW_9LTJKKf5pEs" name="Trang-1">
    <mxGraphModel dx="868" dy="520" grid="1" gridSize="10" guides="1" tooltips="1" connect="1" arrows="1" fold="1" page="1" pageScale="1" pageWidth="827" pageHeight="1169" math="0" shadow="0">
      <root>
        <mxCell id="0" />
        <mxCell id="1" parent="0" />
        <mxCell id="5pTlOpsHHp5RIkYjszge-6" value="" style="shape=process;whiteSpace=wrap;html=1;backgroundOutline=1;size=0.04938271604938271;" vertex="1" parent="1">
          <mxGeometry x="10" y="200" width="810" height="330" as="geometry" />
        </mxCell>
        <mxCell id="5pTlOpsHHp5RIkYjszge-2" value="Actor" style="shape=umlActor;verticalLabelPosition=bottom;verticalAlign=top;html=1;outlineConnect=0;" vertex="1" parent="1">
          <mxGeometry x="70" y="345" width="20" height="40" as="geometry" />
        </mxCell>
        <mxCell id="5pTlOpsHHp5RIkYjszge-7" value="User" style="text;html=1;strokeColor=none;fillColor=none;align=center;verticalAlign=middle;whiteSpace=wrap;rounded=0;rotation=-90;" vertex="1" parent="1">
          <mxGeometry y="350" width="60" height="30" as="geometry" />
        </mxCell>
      </root>
    </mxGraphModel>
  </diagram>
</mxfile>
